<?xml version="1.0" standalone="no"?>
<!DOCTYPE svg PUBLIC "-//W3C//DTD SVG 20010904//EN"
 "http://www.w3.org/TR/2001/REC-SVG-20010904/DTD/svg10.dtd">
<svg version="1.0" xmlns="http://www.w3.org/2000/svg"
 width="512.000000pt" height="512.000000pt" viewBox="0 0 512.000000 512.000000"
 preserveAspectRatio="xMidYMid meet">
<metadata>
Created by potrace 1.14, written by Peter Selinger 2001-2017
</metadata>
<g transform="translate(0.000000,512.000000) scale(0.100000,-0.100000)"
fill="#000000" stroke="none">
<path d="M2250 5005 c-8 -2 -49 -8 -90 -15 -80 -12 -209 -47 -225 -61 -5 -5
-17 -9 -27 -9 -31 0 -212 -101 -280 -157 -78 -64 -152 -147 -192 -216 -15 -27
-34 -51 -42 -54 -22 -8 -44 -58 -43 -95 1 -18 -15 -91 -36 -163 -37 -129 -38
-131 -32 -261 15 -335 85 -656 177 -814 22 -38 40 -71 40 -74 0 -4 22 -37 49
-74 27 -37 50 -76 52 -87 2 -10 21 -31 41 -45 36 -24 138 -144 138 -161 0 -5
19 -30 43 -57 23 -27 63 -75 89 -106 25 -31 69 -74 98 -95 28 -21 67 -57 86
-80 20 -23 62 -59 94 -81 59 -40 102 -82 164 -160 45 -56 65 -99 67 -142 2
-46 20 -110 36 -129 8 -9 13 -41 13 -81 0 -82 -27 -129 -80 -139 -79 -14 -125
-50 -155 -121 -9 -24 -21 -52 -26 -63 -18 -42 -62 -262 -55 -274 3 -4 -72 -11
-166 -14 -96 -4 -176 -11 -182 -17 -5 -5 -18 -10 -27 -10 -38 0 -30 -52 11
-65 12 -4 19 -20 24 -55 7 -54 49 -229 72 -300 38 -122 54 -186 54 -224 0 -22
7 -61 16 -86 8 -24 18 -78 22 -120 l7 -75 155 1 c85 0 405 2 711 4 l556 3 7
104 c4 57 11 115 16 129 6 14 10 58 10 97 0 40 9 115 20 167 11 52 20 114 20
138 0 24 5 74 11 112 10 57 16 70 36 79 33 15 26 44 -15 56 -23 6 -32 15 -32
30 0 12 -12 32 -26 46 -21 19 -37 24 -87 26 -52 2 -74 9 -142 46 -164 90 -175
98 -181 125 -8 38 -45 162 -55 190 -12 31 -89 65 -163 72 -35 3 -61 10 -64 18
-2 6 4 12 13 12 18 0 75 55 75 73 0 6 12 35 27 64 24 45 26 56 17 82 -8 19 -8
33 -2 39 6 6 6 16 0 28 -5 11 -13 43 -17 73 -7 53 -7 54 49 135 31 44 100 128
154 184 l97 104 -2 -119 c-1 -65 -3 -208 -4 -318 -1 -110 -5 -205 -10 -211 -5
-6 -10 -45 -13 -86 l-4 -76 30 -6 c17 -3 34 -3 40 0 13 8 -1 167 -16 176 -8 5
-11 103 -10 329 l1 321 185 186 c141 143 201 211 251 287 36 55 69 112 72 128
4 15 11 30 16 33 5 3 9 13 9 22 0 9 7 31 16 47 9 17 20 44 25 60 13 50 33 98
53 127 17 26 15 68 -4 68 -10 0 -8 14 17 90 13 41 18 99 21 235 3 191 3 194
-53 380 -17 61 -40 142 -49 180 -48 198 -279 474 -471 561 -29 14 -102 37
-162 51 -59 15 -150 39 -202 55 -94 28 -94 28 -370 27 -152 -1 -283 -3 -291
-4z m680 -3770 c13 -14 30 -25 38 -25 15 0 122 -49 122 -56 0 -2 -47 -4 -105
-4 l-105 0 0 39 c0 42 8 71 19 71 4 0 18 -11 31 -25z"/>
</g>
</svg>
